<svg width="21" height="24" viewBox="0 0 21 24" fill="none" xmlns="http://www.w3.org/2000/svg">
<path d="M3.53294 23C2.13406 23 1 21.8022 1 20.3234V9.56554C1 8.75277 1.35031 7.98279 1.95 7.47557L8.91706 1.587C9.36221 1.2076 9.92204 1 10.5 1C11.078 1 11.6378 1.2076 12.0829 1.587L19.0488 7.47557C19.6497 7.98279 20 8.75277 20 9.56554V20.3234C20 21.8022 18.8659 23 17.4671 23H3.53294Z" stroke="white" stroke-width="2" stroke-linecap="round" stroke-linejoin="round"/>
<path d="M7 23V16.4C7 15.7635 7.295 15.153 7.8201 14.7029C8.3452 14.2529 9.05739 14 9.8 14H11.2C11.9426 14 12.6548 14.2529 13.1799 14.7029C13.705 15.153 14 15.7635 14 16.4V23" stroke="white" stroke-width="2" stroke-linecap="round" stroke-linejoin="round"/>
</svg>
