<svg width="23" height="16" viewBox="0 0 23 16" fill="none" xmlns="http://www.w3.org/2000/svg">
<path d="M2.83392 5.08964C2.83382 4.24614 3.04422 3.41583 3.44619 2.67341C3.84817 1.93098 4.42912 1.29972 5.1368 0.836409C5.84447 0.373095 6.65666 0.0922556 7.50033 0.0191502C8.344 -0.0539553 9.19269 0.0829661 9.97005 0.417599C10.7474 0.752233 11.4291 1.27408 11.9537 1.93621C12.4784 2.59834 12.8296 3.37999 12.9757 4.21084C13.1219 5.04169 13.0584 5.8957 12.7909 6.69605C12.5235 7.49639 12.0605 8.21798 11.4437 8.7959C12.6067 9.3583 13.6165 10.1917 14.3875 11.2253C15.1584 12.259 15.6679 13.4626 15.8727 14.7341C15.8952 14.8755 15.8895 15.0201 15.856 15.1594C15.8224 15.2987 15.7616 15.43 15.6771 15.5459C15.5926 15.6619 15.486 15.7601 15.3634 15.8349C15.2408 15.9098 15.1045 15.9599 14.9625 15.9823C14.8204 16.0048 14.6753 15.9991 14.5355 15.9657C14.3956 15.9323 14.2637 15.8717 14.1474 15.7876C14.031 15.7034 13.9324 15.5972 13.8572 15.4751C13.7821 15.3529 13.7318 15.2172 13.7093 15.0757C13.4903 13.7094 12.7895 12.4656 11.7327 11.5677C10.6759 10.6697 9.33225 10.1764 7.94314 10.1764C6.55404 10.1764 5.21043 10.6697 4.15361 11.5677C3.09678 12.4656 2.39597 13.7094 2.17702 15.0757C2.1544 15.2172 2.10402 15.3529 2.02876 15.475C1.9535 15.5971 1.85484 15.7032 1.7384 15.7873C1.62196 15.8715 1.49002 15.9319 1.35013 15.9652C1.21024 15.9986 1.06512 16.0041 0.923071 15.9816C0.781021 15.9591 0.644817 15.9089 0.522236 15.8339C0.399655 15.759 0.293098 15.6607 0.208649 15.5447C0.124199 15.4287 0.0635113 15.2973 0.0300498 15.158C-0.00341164 15.0186 -0.00899132 14.8741 0.0136294 14.7326C0.217666 13.4612 0.726868 12.2578 1.49795 11.2244C2.26904 10.1911 3.27921 9.35848 4.4426 8.79736C3.93459 8.32142 3.5298 7.74693 3.25314 7.10927C2.97647 6.47162 2.83381 5.7843 2.83392 5.08964ZM15.9719 2.90864C16.8201 2.90923 17.6498 3.15504 18.3604 3.61623C19.071 4.07742 19.632 4.73415 19.9751 5.50672C20.3182 6.27929 20.4289 7.13446 20.2935 7.96843C20.1582 8.8024 19.7827 9.5793 19.2126 10.2048C20.1017 10.6435 20.8916 11.2581 21.5341 12.0111C22.1766 12.7641 22.6583 13.6396 22.9497 14.5843C23.0075 14.7676 23.0157 14.9629 22.9733 15.1503C22.9309 15.3378 22.8394 15.5107 22.7082 15.6516C22.577 15.7925 22.4107 15.8963 22.2262 15.9524C22.0417 16.0086 21.8456 16.0152 21.6578 15.9714C21.4699 15.9281 21.2969 15.8362 21.1562 15.705C21.0155 15.5738 20.912 15.4079 20.8563 15.2241C20.5943 14.3812 20.1174 13.6205 19.4722 13.016C18.8269 12.4116 18.0354 11.984 17.1748 11.7752C16.9357 11.7177 16.7231 11.5817 16.5711 11.3892C16.419 11.1966 16.3366 10.9587 16.3369 10.7137V10.2019C16.3367 9.9989 16.3935 9.79987 16.5008 9.62724C16.6081 9.45461 16.7616 9.31525 16.9441 9.22483C17.3867 9.00637 17.7421 8.6453 17.9526 8.20026C18.1631 7.75523 18.2164 7.25237 18.1038 6.77336C17.9912 6.29436 17.7193 5.86734 17.3323 5.56168C16.9452 5.25602 16.4658 5.08967 15.9719 5.08964C15.6816 5.08964 15.4031 4.97475 15.1978 4.77024C14.9924 4.56573 14.8771 4.28836 14.8771 3.99914C14.8771 3.70992 14.9924 3.43255 15.1978 3.22804C15.4031 3.02353 15.6816 2.90864 15.9719 2.90864ZM7.94314 2.18163C7.55435 2.17288 7.16771 2.24158 6.80594 2.3837C6.44417 2.52582 6.11455 2.7385 5.83643 3.00926C5.55831 3.28001 5.33731 3.60338 5.18639 3.96038C5.03547 4.31738 4.95768 4.70082 4.95758 5.08817C4.95748 5.47553 5.03508 5.859 5.18582 6.21608C5.33656 6.57315 5.55741 6.89663 5.83539 7.16752C6.11337 7.43842 6.44288 7.65126 6.80458 7.79357C7.16628 7.93587 7.55288 8.00476 7.94168 7.9962C8.70451 7.9794 9.43041 7.66581 9.96402 7.12258C10.4976 6.57934 10.7965 5.84962 10.7967 5.08963C10.7969 4.32964 10.4984 3.59977 9.96504 3.05626C9.43171 2.51276 8.70596 2.19882 7.94314 2.18163Z" fill="#E9EEF6"/>
</svg>
