<svg width="22" height="22" viewBox="0 0 22 22" fill="none" xmlns="http://www.w3.org/2000/svg">
<path d="M2.03541 2.03505C1.91897 2.15145 1.84818 2.30578 1.8359 2.46996C1.82362 2.63414 1.87067 2.79728 1.96849 2.92971L2.03541 3.00671L5.73324 6.70546C3.93101 7.97003 2.64412 9.84099 2.10782 11.9763C2.06655 12.1521 2.09612 12.3371 2.19014 12.4913C2.28416 12.6455 2.43508 12.7565 2.61028 12.8003C2.78548 12.8442 2.97089 12.8173 3.12644 12.7255C3.28199 12.6338 3.39519 12.4845 3.44157 12.31C3.91806 10.4147 5.08937 8.76766 6.72324 7.69546L8.38241 9.35463C7.71965 10.0472 7.35445 10.9717 7.36502 11.9302C7.37559 12.8887 7.7611 13.805 8.43897 14.4827C9.11684 15.1605 10.0332 15.5458 10.9917 15.5562C11.9502 15.5666 12.8747 15.2013 13.5671 14.5384L18.9928 19.965C19.1155 20.0881 19.2802 20.1601 19.4538 20.1666C19.6274 20.1731 19.797 20.1137 19.9286 20.0002C20.0602 19.8868 20.1439 19.7277 20.163 19.5551C20.182 19.3824 20.135 19.2089 20.0314 19.0695L19.9645 18.9925L14.3609 13.388L14.3618 13.3861L7.99099 7.01896L7.99282 7.01713L6.95424 5.9813L3.00707 2.03505C2.87817 1.9063 2.70343 1.83398 2.52124 1.83398C2.33905 1.83398 2.16431 1.9063 2.03541 2.03505ZM11.0004 5.04171C10.0837 5.04171 9.19457 5.17738 8.35216 5.4313L9.48607 6.5643C11.4473 6.17596 13.4828 6.55612 15.1717 7.62619C16.8606 8.69626 18.0737 10.3744 18.5602 12.3136C18.6076 12.4868 18.721 12.6345 18.876 12.7252C19.031 12.8159 19.2154 12.8423 19.3896 12.7989C19.5638 12.7554 19.7142 12.6455 19.8084 12.4926C19.9026 12.3397 19.9333 12.1561 19.8939 11.9809C19.3973 9.99831 18.2523 8.23859 16.6409 6.98132C15.0296 5.72405 13.0442 5.04136 11.0004 5.04171ZM11.1792 8.25921L14.6634 11.7425C14.6183 10.8331 14.2368 9.97293 13.5928 9.32917C12.9489 8.6854 12.0886 8.30404 11.1792 8.25921Z" fill="black"/>
</svg>
