<svg width="22" height="22" viewBox="0 0 22 22" fill="none" xmlns="http://www.w3.org/2000/svg">
<path d="M11.0008 8.25491C11.9732 8.25491 12.9059 8.64122 13.5935 9.32885C14.2811 10.0165 14.6674 10.9491 14.6674 11.9216C14.6674 12.894 14.2811 13.8267 13.5935 14.5143C12.9059 15.2019 11.9732 15.5882 11.0008 15.5882C10.0283 15.5882 9.09569 15.2019 8.40806 14.5143C7.72042 13.8267 7.33411 12.894 7.33411 11.9216C7.33411 10.9491 7.72042 10.0165 8.40806 9.32885C9.09569 8.64122 10.0283 8.25491 11.0008 8.25491ZM11.0008 5.04199C15.2294 5.04199 18.8804 7.92949 19.8934 11.9757C19.9377 12.1525 19.91 12.3398 19.8163 12.4962C19.7226 12.6526 19.5706 12.7655 19.3938 12.8098C19.2169 12.8542 19.0297 12.8265 18.8732 12.7328C18.7168 12.6391 18.604 12.4871 18.5596 12.3102C18.1352 10.6268 17.1609 9.13313 15.7913 8.0662C14.4217 6.99926 12.7351 6.42009 10.9989 6.42051C9.26273 6.42093 7.5764 7.00092 6.20728 8.06852C4.83817 9.13612 3.86463 10.6302 3.44103 12.3139C3.41918 12.4015 3.38029 12.484 3.32656 12.5566C3.27284 12.6292 3.20535 12.6905 3.12793 12.7371C3.05051 12.7836 2.96469 12.8144 2.87536 12.8277C2.78604 12.8411 2.69496 12.8367 2.60732 12.8149C2.51969 12.793 2.43721 12.7541 2.36461 12.7004C2.29201 12.6467 2.2307 12.5792 2.18418 12.5018C2.13766 12.4243 2.10684 12.3385 2.09349 12.2492C2.08014 12.1599 2.08452 12.0688 2.10636 11.9812C2.60305 9.99844 3.74816 8.23861 5.35971 6.98132C6.97126 5.72403 8.9568 5.04143 11.0008 5.04199Z" fill="black"/>
</svg>
