<svg width="28" height="26" viewBox="0 0 28 26" fill="none" xmlns="http://www.w3.org/2000/svg">
<path d="M13.5536 25.3333C21.039 25.3333 27.1071 19.6623 27.1071 12.6667C27.1071 5.67106 21.039 0 13.5536 0C6.06814 0 0 5.67106 0 12.6667C0 19.6623 6.06814 25.3333 13.5536 25.3333Z" fill="#4466E6"/>
<path d="M12.4328 9.2333C12.6929 9.15651 12.9885 9.29347 13.0961 9.53255C13.3561 10.0883 13.5891 10.6607 13.8585 11.2156C14.0194 11.5489 14.5675 11.5917 14.7818 11.2845C15.141 10.7288 15.4281 10.139 15.778 9.57451C16.0652 9.22459 16.5853 9.39559 16.98 9.36155C17.3926 9.33622 17.6975 9.82309 17.4637 10.1564C16.3337 12.13 15.1952 14.0957 14.0652 16.0701C13.8763 16.4288 13.2579 16.4288 13.0876 16.0527C12.836 15.4803 12.6387 14.8818 12.3964 14.3095C12.2524 13.9334 11.634 13.8741 11.4282 14.2327C11.0783 14.8225 10.7733 15.4376 10.4235 16.0187C10.2532 16.2831 9.89406 16.2403 9.61621 16.2403C9.34683 16.2237 9.02409 16.3005 8.81824 16.0868C8.72807 15.9995 8.67122 15.8869 8.65651 15.7664C8.64181 15.6458 8.67007 15.5242 8.73692 15.4202C9.79579 13.5487 10.8716 11.6693 11.9305 9.78034C12.0559 9.56659 12.1634 9.30059 12.4328 9.2333ZM8.73692 9.37897C9.05067 9.36264 9.36515 9.36264 9.67889 9.37897C10.0287 9.41301 10.2532 9.8318 10.083 10.1311C9.03256 11.9851 7.97453 13.8305 6.92583 15.6767C6.79961 15.8825 6.70134 16.1556 6.43197 16.2229C6.11854 16.2665 5.7958 16.2411 5.48152 16.2411C5.09609 16.2578 4.77335 15.7875 5.0063 15.4716C6.10075 13.5574 7.19436 11.6344 8.28881 9.71226C8.3786 9.54997 8.53108 9.38768 8.73777 9.37897H8.73692ZM19.8678 9.39559C20.2083 9.30139 20.5675 9.37026 20.9173 9.34414C21.1859 9.35284 21.5273 9.30139 21.7246 9.52384C21.9669 9.75501 21.8941 10.1904 21.5891 10.3361C20.9707 10.7034 20.3608 11.0961 19.734 11.4555C19.3384 11.7112 18.7556 11.2758 18.9258 10.8483C19.0783 10.5063 19.2935 10.1912 19.4646 9.85714C19.5628 9.68614 19.6526 9.46447 19.8678 9.39559ZM16.8987 14.5058C17.0783 14.4029 17.3028 14.4377 17.473 14.5232C17.9483 14.7449 18.4235 14.9848 18.908 15.1985C19.1147 15.284 19.3299 15.4463 19.3384 15.6767C19.3748 15.9846 19.0961 16.2831 18.7733 16.2578C18.083 16.2578 17.3926 16.2657 16.7107 16.2578C16.3701 16.2578 16.1007 15.8817 16.2261 15.5746C16.3159 15.3521 16.4506 15.155 16.5582 14.9412C16.6387 14.7797 16.7191 14.5826 16.8987 14.5058Z" fill="white"/>
</svg>
