<svg width="33" height="36" viewBox="0 0 33 36" fill="none" xmlns="http://www.w3.org/2000/svg">
<path d="M16.4918 0.750011C9.19518 0.750099 3.29611 6.60663 3.29611 13.8833V20.8705L0.948761 26.2474L0.948666 26.2476C0.789796 26.6124 0.724572 27.011 0.758915 27.4072C0.793257 27.8035 0.926077 28.1849 1.14532 28.5173C1.36457 28.8496 1.66333 29.1223 2.01461 29.311C2.36588 29.4996 2.75871 29.5984 3.15773 29.5983H11.0705L11.0724 29.6645L11.0722 29.6645L11.0727 29.672C11.1543 31.0767 11.783 32.3941 12.825 33.3443C13.867 34.2945 15.24 34.8027 16.6521 34.7612C18.0643 34.7197 19.4048 34.1318 20.3887 33.122C21.3141 32.1722 21.8553 30.9197 21.9148 29.6033L29.8436 29.5983C29.8436 29.5983 29.8436 29.5983 29.8436 29.5983C30.2431 29.5981 30.6362 29.499 30.9877 29.3097C31.3391 29.1205 31.6378 28.8471 31.8568 28.5141C32.0757 28.1811 32.208 27.7989 32.2415 27.4022C32.2751 27.0054 32.2088 26.6067 32.0488 26.2418L32.0487 26.2417L29.6878 20.8685V13.8833H29.6879L29.6878 13.8793L29.6809 13.4498L29.6809 13.4498L29.6808 13.4458C29.571 10.0383 28.1325 6.80753 25.6705 4.43778C23.2085 2.06811 19.9164 0.745573 16.4918 0.750011ZM16.4918 0.750011C16.4919 0.750011 16.4919 0.750011 16.492 0.750011V1.00001L16.4916 0.750011C16.4917 0.750011 16.4918 0.750011 16.4918 0.750011ZM16.492 3.82666L16.4924 3.82666C19.1128 3.82213 21.6319 4.83218 23.517 6.64279C25.4015 8.45278 26.5046 10.9208 26.5935 13.5251L26.5987 13.9056V13.9072V21.4603V21.5129L26.6198 21.5609L28.8011 26.5234H4.19729L6.3644 21.5586L6.38528 21.5108V21.4586V13.8833C6.38528 8.30935 10.898 3.82666 16.492 3.82666ZM14.1663 29.6033L18.818 29.6002C18.7553 30.1863 18.4711 30.7274 18.0223 31.1136C17.5678 31.5047 16.9793 31.7068 16.3787 31.6778C15.7782 31.6489 15.2121 31.3911 14.7978 30.9582C14.4417 30.5862 14.2211 30.1093 14.1663 29.6033Z" fill="#7C97FE" stroke="#7C97FE" stroke-width="0.5"/>
</svg>
