<svg width="25" height="27" viewBox="0 0 25 27" fill="none" xmlns="http://www.w3.org/2000/svg">
<path d="M12.494 0.750008C7.04507 0.750008 2.63905 5.12376 2.63905 10.5586V15.7292L0.902857 19.7061L0.902762 19.7063C0.780604 19.9869 0.730446 20.2933 0.756855 20.598C0.783263 20.9027 0.885397 21.196 1.05397 21.4516L1.26253 21.314L1.05397 21.4516C1.22254 21.7071 1.45222 21.9167 1.72225 22.0617L1.84054 21.8415L1.72225 22.0617C1.99227 22.2068 2.29421 22.2826 2.6009 22.2826H8.40923C8.47219 23.3394 8.94596 24.3301 9.72994 25.0451C10.5154 25.7613 11.5503 26.1444 12.6148 26.1131C13.6792 26.0818 14.6897 25.6387 15.4313 24.8775C16.1145 24.1763 16.52 23.2562 16.5786 22.2863L22.4001 22.2826C22.7071 22.2825 23.0093 22.2063 23.2795 22.0608C23.5497 21.9153 23.7793 21.7052 23.9476 21.4491C24.116 21.1931 24.2177 20.8992 24.2435 20.5942C24.2693 20.2891 24.2183 19.9824 24.0953 19.7019L24.0952 19.7017L22.349 15.7276V10.5586H22.3491L22.349 10.5545L22.3439 10.2359H22.3439L22.3438 10.2319C22.2618 7.68693 21.1874 5.27396 19.3486 3.50413C17.51 1.73441 15.0515 0.746747 12.494 0.750008ZM12.494 0.750008V1.00001M12.494 0.750008C12.4939 0.750008 12.4938 0.750008 12.4937 0.750008L12.494 1.00001M12.494 1.00001C7.18184 1.00001 2.88905 5.26312 2.88905 10.5586V15.7813L22.0939 10.2399C22.014 7.7603 20.9672 5.40902 19.1753 3.68425C17.3833 1.95949 14.987 0.996747 12.494 1.00001ZM12.494 3.16172L12.4945 3.16172C14.422 3.15838 16.275 3.90136 17.6615 5.23312C19.0474 6.56426 19.8587 8.37924 19.9243 10.2943L19.928 10.5751V10.5768V16.1803V16.2328L19.9492 16.2809L21.5278 19.8722H3.47074L5.03917 16.279L5.06005 16.2312V16.179V10.5586C5.06005 6.45903 8.379 3.16172 12.494 3.16172ZM10.842 22.2863L14.1464 22.2841C14.0873 22.675 13.8897 23.0334 13.5873 23.2935C13.2627 23.5728 12.8422 23.7172 12.4131 23.6965C11.984 23.6759 11.5796 23.4916 11.2837 23.1825C11.0462 22.9343 10.8931 22.6209 10.842 22.2863Z" fill="#7C97FE" stroke="#7C97FE" stroke-width="0.5"/>
</svg>
