<svg width="30" height="26" viewBox="0 0 30 26" fill="none" xmlns="http://www.w3.org/2000/svg">
<path d="M5.75556 22.6998L7.95689 21.1148L7.97133 21.1044C8.43067 20.7728 8.66322 20.6064 8.92178 20.4881C9.15385 20.3814 9.39844 20.3043 9.65556 20.2566C9.943 20.2033 10.242 20.2033 10.8429 20.2033H23.3821C24.997 20.2033 25.8059 20.2033 26.4227 19.9199C26.9662 19.6705 27.4081 19.2727 27.6851 18.7835C28 18.227 28 17.4988 28 16.0478V6.15686C28 4.70319 28 3.97506 27.6851 3.41986C27.4078 2.93037 26.9653 2.53254 26.4212 2.28345C25.8044 2 24.9956 2 23.3778 2H6.62222C5.00444 2 4.19556 2 3.57733 2.28345C3.03378 2.53276 2.59185 2.93057 2.31489 3.41986C2 3.97636 2 4.70449 2 6.16076V21.0758C2 22.4618 2 23.1548 2.31489 23.5098C2.45029 23.6628 2.62232 23.7864 2.81814 23.8713C3.01397 23.9562 3.22855 24.0002 3.44589 24C3.95144 24 4.55233 23.5657 5.75556 22.6998Z" stroke="#7C97FE" stroke-width="3" stroke-linecap="round" stroke-linejoin="round"/>
</svg>
