<svg width="46" height="46" viewBox="0 0 46 46" fill="none" xmlns="http://www.w3.org/2000/svg">
<g clip-path="url(#clip0_727_12263)">
<path d="M23 46C35.7025 46 46 35.7025 46 23C46 10.2975 35.7025 0 23 0C10.2975 0 0 10.2975 0 23C0 35.7025 10.2975 46 23 46Z" fill="#4466E6"/>
<path d="M21.3614 16.5701C21.8027 16.4306 22.3044 16.6793 22.4869 17.1135C22.9282 18.1226 23.3236 19.1619 23.7807 20.1696C24.0538 20.7748 24.9839 20.8524 25.3476 20.2946C25.9571 19.2855 26.4444 18.2146 27.0381 17.1896C27.5254 16.5543 28.408 16.8648 29.0779 16.803C29.7779 16.757 30.2954 17.641 29.8987 18.2462C27.9811 21.8299 26.0491 25.3992 24.1314 28.9843C23.8109 29.6355 22.7615 29.6355 22.4726 28.9527C22.0456 27.9134 21.7107 26.8266 21.2996 25.7873C21.0552 25.1045 20.0058 24.9967 19.6565 25.6479C19.0628 26.7188 18.5453 27.8358 17.9516 28.8909C17.6627 29.371 17.0532 29.2934 16.5817 29.2934C16.1246 29.2632 15.5769 29.4026 15.2276 29.0145C15.0745 28.8561 14.9781 28.6516 14.9531 28.4328C14.9282 28.2139 14.9761 27.993 15.0896 27.8041C16.8864 24.4059 18.7121 20.9933 20.5089 17.5634C20.7217 17.1753 20.9042 16.6923 21.3614 16.5701ZM15.0896 16.8346C15.622 16.8049 16.1556 16.8049 16.6881 16.8346C17.2818 16.8964 17.6627 17.6568 17.3738 18.2002C15.5913 21.5668 13.7958 24.9176 12.0162 28.2699C11.802 28.6436 11.6353 29.1396 11.1781 29.2618C10.6463 29.3408 10.0986 29.2948 9.56525 29.2948C8.91119 29.325 8.3635 28.4711 8.75881 27.8976C10.6161 24.4217 12.4719 20.93 14.3291 17.4398C14.4815 17.1451 14.7403 16.8504 15.091 16.8346H15.0896ZM33.9783 16.8648C34.5562 16.6937 35.1657 16.8188 35.7594 16.7713C36.2151 16.7871 36.7944 16.6937 37.1293 17.0976C37.5404 17.5174 37.4168 18.308 36.8993 18.5725C35.8499 19.2395 34.8149 19.9525 33.7512 20.6051C33.0799 21.0695 32.0909 20.2788 32.3798 19.5026C32.6386 18.8816 33.0037 18.3095 33.2941 17.7028C33.4608 17.3923 33.6132 16.9898 33.9783 16.8648ZM28.9399 26.1438C29.2446 25.957 29.6256 26.0202 29.9145 26.1755C30.7209 26.578 31.5274 27.0135 32.3496 27.4016C32.7004 27.5569 33.0655 27.8516 33.0799 28.2699C33.1417 28.8291 32.6688 29.371 32.1211 29.325C30.9495 29.325 29.7779 29.3394 28.6208 29.325C28.0429 29.325 27.5857 28.6422 27.7985 28.0845C27.9509 27.6805 28.1794 27.3226 28.362 26.9345C28.4986 26.6412 28.6351 26.2833 28.9399 26.1438Z" fill="white"/>
</g>
<defs>
<clipPath id="clip0_727_12263">
<rect width="46" height="46" fill="white"/>
</clipPath>
</defs>
</svg>
