<svg width="50" height="48" viewBox="0 0 50 48" fill="none" xmlns="http://www.w3.org/2000/svg">
<path d="M0 10C0 4.47715 4.47715 0 10 0H40C45.5228 0 50 4.47715 50 10V38C50 43.5228 45.5228 48 40 48H10C4.47715 48 0 43.5228 0 38V10Z" fill="#CDD7FF"/>
<g clip-path="url(#clip0_1363_11211)">
<path d="M25 47C37.7025 47 48 36.7025 48 24C48 11.2975 37.7025 1 25 1C12.2975 1 2 11.2975 2 24C2 36.7025 12.2975 47 25 47Z" fill="#4466E6"/>
<path d="M23.3609 17.5701C23.8022 17.4306 24.3039 17.6793 24.4864 18.1135C24.9278 19.1226 25.3231 20.1619 25.7802 21.1696C26.0533 21.7748 26.9834 21.8524 27.3471 21.2946C27.9566 20.2855 28.4439 19.2146 29.0376 18.1896C29.5249 17.5543 30.4075 17.8648 31.0774 17.803C31.7775 17.757 32.2949 18.641 31.8982 19.2462C29.9806 22.8299 28.0486 26.3992 26.131 29.9843C25.8104 30.6355 24.761 30.6355 24.4721 29.9527C24.0451 28.9134 23.7102 27.8266 23.2991 26.7873C23.0547 26.1045 22.0053 25.9967 21.656 26.6479C21.0623 27.7188 20.5448 28.8358 19.9511 29.8909C19.6622 30.371 19.0527 30.2934 18.5812 30.2934C18.1241 30.2632 17.5764 30.4026 17.2271 30.0145C17.074 29.8561 16.9776 29.6516 16.9526 29.4328C16.9277 29.2139 16.9756 28.993 17.0891 28.8041C18.8859 25.4059 20.7116 21.9933 22.5084 18.5634C22.7212 18.1753 22.9038 17.6923 23.3609 17.5701ZM17.0891 17.8346C17.6215 17.8049 18.1552 17.8049 18.6876 17.8346C19.2813 17.8964 19.6622 18.6568 19.3733 19.2002C17.5908 22.5668 15.7953 25.9176 14.0157 29.2699C13.8015 29.6436 13.6348 30.1396 13.1776 30.2618C12.6458 30.3408 12.0981 30.2948 11.5648 30.2948C10.9107 30.325 10.363 29.4711 10.7583 28.8976C12.6156 25.4217 14.4714 21.93 16.3286 18.4398C16.481 18.1451 16.7398 17.8504 17.0905 17.8346H17.0891ZM35.9778 17.8648C36.5557 17.6937 37.1652 17.8188 37.7589 17.7713C38.2146 17.7871 38.7939 17.6937 39.1288 18.0976C39.54 18.5174 39.4163 19.308 38.8988 19.5725C37.8495 20.2395 36.8145 20.9525 35.7507 21.6051C35.0794 22.0695 34.0904 21.2788 34.3793 20.5026C34.6381 19.8816 35.0032 19.3095 35.2936 18.7028C35.4603 18.3923 35.6127 17.9898 35.9778 17.8648ZM30.9394 27.1438C31.2441 26.957 31.6251 27.0202 31.914 27.1755C32.7204 27.578 33.5269 28.0135 34.3491 28.4016C34.6999 28.5569 35.065 28.8516 35.0794 29.2699C35.1412 29.8291 34.6683 30.371 34.1206 30.325C32.949 30.325 31.7774 30.3394 30.6203 30.325C30.0424 30.325 29.5853 29.6422 29.798 29.0845C29.9504 28.6805 30.1789 28.3226 30.3615 27.9345C30.4981 27.6412 30.6346 27.2833 30.9394 27.1438Z" fill="white"/>
</g>
<defs>
<clipPath id="clip0_1363_11211">
<rect width="46" height="46" fill="white" transform="translate(2 1)"/>
</clipPath>
</defs>
</svg>
