<svg width="14" height="15" viewBox="0 0 14 15" fill="none" xmlns="http://www.w3.org/2000/svg">
<path d="M9.70625 9.28418H10.4156L14 12.8686L12.5844 14.2842L9 10.6998V9.99043L8.16562 9.15605C7.30312 9.8623 6.2 10.2842 5 10.2842C2.2375 10.2842 0 8.04668 0 5.28418C0 2.52168 2.2375 0.28418 5 0.28418C7.7625 0.28418 10 2.52168 10 5.28418C10 6.48418 9.57812 7.5873 8.87187 8.4498L9.70625 9.28418ZM5 1.28418C2.79063 1.28418 1 3.0748 1 5.28418C1 7.49355 2.79063 9.28418 5 9.28418C7.20937 9.28418 9 7.49355 9 5.28418C9 3.0748 7.20937 1.28418 5 1.28418Z" fill="#596169"/>
</svg>
