<svg width="23" height="26" viewBox="0 0 23 26" fill="none" xmlns="http://www.w3.org/2000/svg">
<path d="M11.546 2.95455L8.6595 5.90909H14.4095L11.546 2.95455ZM2.3 8.27273V23.6364H20.7V8.27273H2.3ZM11.5 0L17.25 5.90909H20.7C21.31 5.90909 21.895 6.15812 22.3263 6.60138C22.7577 7.04465 23 7.64585 23 8.27273V23.6364C23 24.2632 22.7577 24.8644 22.3263 25.3077C21.895 25.751 21.31 26 20.7 26H2.3C1.69 26 1.10499 25.751 0.673654 25.3077C0.242321 24.8644 0 24.2632 0 23.6364V8.27273C0 7.64585 0.242321 7.04465 0.673654 6.60138C1.10499 6.15812 1.69 5.90909 2.3 5.90909H5.75L11.5 0ZM5.75 21.2727V16.5455H11.5V21.2727H5.75ZM13.8 20.0909V11.8182H18.4V20.0909H13.8ZM4.6 14.1818V10.6364H10.35V14.1818H4.6Z" fill="#E9EEF6"/>
</svg>
