<svg width="20" height="20" viewBox="0 0 20 20" fill="none" xmlns="http://www.w3.org/2000/svg">
<path d="M12 5H12.01M8 17H4C3.20435 17 2.44129 16.6839 1.87868 16.1213C1.31607 15.5587 1 14.7956 1 14V4C1 3.20435 1.31607 2.44129 1.87868 1.87868C2.44129 1.31607 3.20435 1 4 1H14C14.7956 1 15.5587 1.31607 16.1213 1.87868C16.6839 2.44129 17 3.20435 17 4V8" stroke="#7C97FE" stroke-width="2" stroke-linecap="round" stroke-linejoin="round"/>
<path d="M1 11.9998L5 7.99983C5.928 7.10683 7.072 7.10683 8 7.99983L11 10.9998L12 9.99983C12.31 9.70183 12.644 9.50283 12.987 9.40383M15.42 12.6098C15.615 12.4148 15.8465 12.2601 16.1013 12.1546C16.3561 12.049 16.6292 11.9947 16.905 11.9947C17.1808 11.9947 17.4539 12.049 17.7087 12.1546C17.9635 12.2601 18.195 12.4148 18.39 12.6098C18.585 12.8048 18.7397 13.0364 18.8452 13.2912C18.9508 13.5459 19.0051 13.819 19.0051 14.0948C19.0051 14.3706 18.9508 14.6437 18.8452 14.8985C18.7397 15.1533 18.585 15.3848 18.39 15.5798L15 18.9998H12V15.9998L15.42 12.6098Z" stroke="#7C97FE" stroke-width="2" stroke-linecap="round" stroke-linejoin="round"/>
</svg>
