<svg width="11" height="7" viewBox="0 0 11 7" fill="none" xmlns="http://www.w3.org/2000/svg">
<path d="M10.2521 0.76539L10.252 0.765489C10.4103 0.92871 10.5 1.14728 10.5 1.37624C10.5 1.60516 10.4103 1.82369 10.2521 1.9869L10.2521 0.76539ZM10.2521 0.76539L10.2436 0.757022L10.2425 0.755969L10.2521 0.76539ZM6.13941 6.2299L10.252 1.98699L4.8606 6.22991C4.94391 6.31586 5.04361 6.38379 5.15341 6.43003C5.2632 6.47627 5.38109 6.5 5.5 6.5C5.61891 6.5 5.7368 6.47627 5.84659 6.43003C5.95639 6.38379 6.0561 6.31586 6.1394 6.22991C6.1394 6.22991 6.1394 6.2299 6.13941 6.2299ZM0.748022 1.98699L4.86059 6.2299L9.77065 1.0284C9.72624 1.00966 9.67842 1 9.6301 1C9.58177 1 9.53395 1.00966 9.48955 1.0284C9.44514 1.04714 9.40508 1.07457 9.3718 1.10901L9.01276 0.761023L9.01259 0.761203C9.01248 0.761315 9.01237 0.761428 9.01226 0.761541L5.4993 4.38608L1.98774 0.761541L1.62821 1.10901L1.98731 0.761094L1.98756 0.761355C1.90716 0.678206 1.81089 0.612491 1.70486 0.567745C1.59876 0.522971 1.48483 0.5 1.3699 0.5C1.25498 0.5 1.14105 0.522971 1.03495 0.567745C0.931216 0.611523 0.836824 0.675372 0.757493 0.755978L0.756436 0.757016L0.756336 0.756915L0.748023 0.765487C0.589734 0.928708 0.5 1.14728 0.5 1.37624C0.5 1.60516 0.589698 1.82369 0.747933 1.9869C0.747962 1.98693 0.747993 1.98696 0.748022 1.98699Z" fill="#7C97FE" stroke="#7C97FE"/>
</svg>
