<svg width="11" height="11" viewBox="0 0 11 11" fill="none" xmlns="http://www.w3.org/2000/svg">
<path d="M9.08911 1.5692C8.53033 1.00538 7.85203 0.574272 7.10431 0.307724C6.35659 0.0411754 5.55855 -0.0540098 4.76911 0.0291974C2.32244 0.275864 0.309109 2.26253 0.0357759 4.7092C-0.330891 7.94253 2.16911 10.6692 5.32244 10.6692C6.32918 10.6692 7.31526 10.3835 8.16611 9.84542C9.01695 9.3073 9.69765 8.53879 10.1291 7.6292C10.3424 7.18253 10.0224 6.6692 9.52911 6.6692C9.28244 6.6692 9.04911 6.80253 8.94244 7.02253C8.55538 7.85521 7.89335 8.52919 7.06772 8.93107C6.24209 9.33296 5.30324 9.43824 4.40911 9.2292C2.92911 8.90253 1.73578 7.69586 1.42244 6.21586C1.29073 5.6307 1.29226 5.02342 1.42691 4.43893C1.56156 3.85444 1.82589 3.3077 2.20034 2.83915C2.5748 2.37059 3.04981 1.99222 3.59022 1.73201C4.13064 1.4718 4.72264 1.33641 5.32244 1.33586C6.42911 1.33586 7.41578 1.79586 8.13578 2.52253L7.12911 3.5292C6.70911 3.9492 7.00244 4.6692 7.59578 4.6692H9.98911C10.3558 4.6692 10.6558 4.3692 10.6558 4.00253V1.6092C10.6558 1.01586 9.93578 0.715864 9.51578 1.13586L9.08911 1.5692Z" fill="#7C97FE"/>
</svg>
