<svg width="19" height="19" viewBox="0 0 19 19" fill="none" xmlns="http://www.w3.org/2000/svg">
<path fill-rule="evenodd" clip-rule="evenodd" d="M8.53857 1.84534e-08C7.23374 0.000111182 5.94785 0.31226 4.7882 0.910405C3.62854 1.50855 2.62874 2.37534 1.8722 3.43847C1.11567 4.5016 0.624348 5.73023 0.439222 7.02186C0.254096 8.31349 0.380538 9.63067 0.807998 10.8635C1.23546 12.0963 1.95154 13.209 2.8965 14.1088C3.84146 15.0086 4.9879 15.6694 6.24017 16.036C7.49244 16.4026 8.81423 16.4645 10.0952 16.2163C11.3763 15.9682 12.5794 15.4174 13.6042 14.6097L17.1199 18.1254C17.3015 18.3008 17.5447 18.3978 17.7971 18.3956C18.0495 18.3934 18.291 18.2922 18.4694 18.1137C18.6479 17.9352 18.7492 17.6938 18.7514 17.4413C18.7536 17.1889 18.6565 16.9458 18.4812 16.7642L14.9655 13.2485C15.9166 12.0419 16.5088 10.5918 16.6743 9.06437C16.8398 7.53691 16.572 5.99369 15.9014 4.61135C15.2308 3.229 14.1846 2.06338 12.8825 1.24786C11.5804 0.432348 10.075 -0.000103145 8.53857 1.84534e-08ZM2.28112 8.18282C2.28112 6.52324 2.94038 4.93163 4.11388 3.75813C5.28738 2.58463 6.87899 1.92537 8.53857 1.92537C10.1981 1.92537 11.7898 2.58463 12.9633 3.75813C14.1368 4.93163 14.796 6.52324 14.796 8.18282C14.796 9.8424 14.1368 11.434 12.9633 12.6075C11.7898 13.781 10.1981 14.4403 8.53857 14.4403C6.87899 14.4403 5.28738 13.781 4.11388 12.6075C2.94038 11.434 2.28112 9.8424 2.28112 8.18282Z" fill="#7C97FE"/>
</svg>
