<svg width="10" height="15" viewBox="0 0 10 15" fill="none" xmlns="http://www.w3.org/2000/svg">
<path d="M8.8903 14.592C9.43112 14.592 9.82096 14.1944 9.82096 13.6617V0.978161C9.82096 0.445482 9.43112 0 8.87436 0C8.48486 0 8.22259 0.175071 7.8012 0.572714L4.29434 3.88855C4.23626 3.93663 4.16274 3.96206 4.08737 3.96014H1.72595C0.604607 3.96014 0 4.57255 0 5.76514V8.85061C0 10.0435 0.604607 10.6556 1.72561 10.6556H4.08737C4.16711 10.6556 4.23836 10.6794 4.29434 10.7272L7.8012 14.0753C8.18255 14.4329 8.5008 14.592 8.8903 14.592Z" fill="#7C97FE"/>
</svg>
