<svg width="10" height="15" viewBox="0 0 10 15" fill="none" xmlns="http://www.w3.org/2000/svg">
<path d="M8.8903 14.796C9.43112 14.796 9.82096 14.3983 9.82096 13.8657V1.18214C9.82096 0.649462 9.43112 0.203979 8.87436 0.203979C8.48486 0.203979 8.22259 0.379051 7.8012 0.776694L4.29434 4.09253C4.23626 4.14061 4.16274 4.16604 4.08737 4.16412H1.72595C0.604607 4.16412 0 4.77653 0 5.96912V9.05459C0 10.2475 0.604607 10.8596 1.72561 10.8596H4.08737C4.16711 10.8596 4.23836 10.8833 4.29434 10.9312L7.8012 14.2792C8.18255 14.6369 8.5008 14.796 8.8903 14.796Z" fill="#F87070"/>
</svg>
