<svg width="46" height="46" viewBox="0 0 46 46" fill="none" xmlns="http://www.w3.org/2000/svg">
<path d="M23 46C35.7025 46 46 35.7025 46 23C46 10.2975 35.7025 0 23 0C10.2975 0 0 10.2975 0 23C0 35.7025 10.2975 46 23 46Z" fill="#4466E6"/>
<path d="M21.3609 16.5701C21.8022 16.4306 22.3039 16.6793 22.4864 17.1135C22.9278 18.1226 23.3231 19.1619 23.7802 20.1696C24.0533 20.7748 24.9834 20.8524 25.3471 20.2946C25.9566 19.2855 26.4439 18.2146 27.0376 17.1896C27.5249 16.5543 28.4075 16.8648 29.0774 16.803C29.7775 16.757 30.2949 17.641 29.8982 18.2462C27.9806 21.8299 26.0486 25.3992 24.1309 28.9843C23.8104 29.6355 22.761 29.6355 22.4721 28.9527C22.0451 27.9134 21.7102 26.8266 21.2991 25.7873C21.0547 25.1045 20.0053 24.9967 19.656 25.6479C19.0623 26.7188 18.5448 27.8358 17.9511 28.8909C17.6622 29.371 17.0527 29.2934 16.5812 29.2934C16.1241 29.2632 15.5764 29.4026 15.2271 29.0145C15.074 28.8561 14.9776 28.6516 14.9526 28.4328C14.9277 28.2139 14.9756 27.993 15.0891 27.8041C16.8859 24.4059 18.7116 20.9933 20.5084 17.5634C20.7212 17.1753 20.9038 16.6923 21.3609 16.5701ZM15.0891 16.8346C15.6215 16.8049 16.1552 16.8049 16.6876 16.8346C17.2813 16.8964 17.6622 17.6568 17.3733 18.2002C15.5908 21.5668 13.7953 24.9176 12.0157 28.2699C11.8015 28.6436 11.6348 29.1396 11.1776 29.2618C10.6458 29.3408 10.0981 29.2948 9.56476 29.2948C8.9107 29.325 8.36301 28.4711 8.75832 27.8976C10.6156 24.4217 12.4714 20.93 14.3286 17.4398C14.481 17.1451 14.7398 16.8504 15.0905 16.8346H15.0891ZM33.9778 16.8648C34.5557 16.6937 35.1652 16.8188 35.7589 16.7713C36.2146 16.7871 36.7939 16.6937 37.1288 17.0976C37.54 17.5174 37.4163 18.308 36.8988 18.5725C35.8495 19.2395 34.8145 19.9525 33.7507 20.6051C33.0794 21.0695 32.0904 20.2788 32.3793 19.5026C32.6381 18.8816 33.0032 18.3095 33.2936 17.7028C33.4603 17.3923 33.6127 16.9898 33.9778 16.8648ZM28.9394 26.1438C29.2441 25.957 29.6251 26.0202 29.914 26.1755C30.7204 26.578 31.5269 27.0135 32.3491 27.4016C32.6999 27.5569 33.065 27.8516 33.0794 28.2699C33.1412 28.8291 32.6683 29.371 32.1206 29.325C30.949 29.325 29.7774 29.3394 28.6203 29.325C28.0424 29.325 27.5853 28.6422 27.798 28.0845C27.9504 27.6805 28.1789 27.3226 28.3615 26.9345C28.4981 26.6412 28.6346 26.2833 28.9394 26.1438Z" fill="white"/>
</svg>
