<svg width="21" height="21" viewBox="0 0 21 21" fill="none" xmlns="http://www.w3.org/2000/svg">
<path d="M20 5.22222C20 7.555 15.7461 9.44444 10.5 9.44444C5.25389 9.44444 1 7.555 1 5.22222M20 5.22222C20 2.88944 15.7461 1 10.5 1C5.25389 1 1 2.88944 1 5.22222M20 5.22222V10.5M1 5.22222V10.5M20 10.5C20 12.8328 15.7461 14.7222 10.5 14.7222C5.25389 14.7222 1 12.8328 1 10.5M20 10.5V15.7778C20 18.1106 15.7461 20 10.5 20C5.25389 20 1 18.1106 1 15.7778V10.5" stroke="#E9EEF6" stroke-width="2" stroke-linecap="round" stroke-linejoin="round"/>
</svg>
